Coordinates
version=1
nRows=60
nColumns=12
inDegrees=yes

Units are S.I. units (second, meters, Newtons, ...)
Angles are in degrees

endheader
time	SC_y	SC_z	SC_x	AC_y	AC_z	AC_x	GH_y	GH_z	GH_yy	EL_x	PS_y
       0.0              -26.41          25.64           46.6          32.87         -1.786         -14.98         -19.52          86.41         -131.9          15.62          70.93
    0.0167              -26.41          25.63          46.59          32.87         -1.788         -14.98         -19.51           86.4         -131.8          15.63          70.93
   0.03341              -26.41          25.63          46.59          32.87          -1.79         -14.98         -19.51          86.39         -131.8          15.65          70.93
   0.05011              -26.42          25.63          46.58          32.87         -1.793         -14.98          -19.5          86.39         -131.8          15.67          70.93
   0.06681              -26.42          25.62          46.58          32.87         -1.795         -14.98          -19.5          86.38         -131.7          15.68          70.93
   0.08351              -26.43          25.62          46.57          32.87         -1.798         -14.98         -19.49          86.37         -131.7           15.7          70.93
    0.1002              -26.43          25.62          46.57          32.87           -1.8         -14.98         -19.48          86.36         -131.7          15.72          70.93
    0.1169              -26.44          25.61          46.56          32.87         -1.803         -14.98         -19.48          86.35         -131.6          15.74          70.93
    0.1336              -26.44          25.61          46.56          32.87         -1.806         -14.98         -19.47          86.34         -131.6          15.76          70.93
    0.1503              -26.45           25.6          46.55          32.87          -1.81         -14.98         -19.46          86.33         -131.5          15.78          70.93
     0.167              -26.45           25.6          46.54          32.87         -1.813         -14.98         -19.45          86.32         -131.5          15.81          70.93
    0.1837              -26.46          25.59          46.53          32.88         -1.817         -14.98         -19.44           86.3         -131.4          15.83          70.93
    0.2004              -26.47          25.59          46.52          32.88         -1.821         -14.98         -19.43          86.29         -131.4          15.86          70.93
    0.2171              -26.48          25.58          46.51          32.88         -1.826         -14.98         -19.42          86.27         -131.3          15.89          70.92
    0.2338              -26.48          25.57           46.5          32.88         -1.831         -14.98         -19.41          86.26         -131.3          15.93          70.92
    0.2505              -26.49          25.56          46.49          32.88         -1.836         -14.98          -19.4          86.24         -131.2          15.96          70.92
    0.2672               -26.5          25.56          46.48          32.88         -1.842         -14.97         -19.38          86.22         -131.1           16.0          70.92
    0.2839              -26.51          25.55          46.47          32.88         -1.848         -14.97         -19.37           86.2         -131.0          16.05          70.92
    0.3006              -26.53          25.54          46.45          32.88         -1.855         -14.97         -19.35          86.17         -131.0          16.09          70.92
    0.3173              -26.54          25.53          46.44          32.88         -1.862         -14.97         -19.33          86.15         -130.9          16.15          70.91
    0.3341              -26.55          25.51          46.42          32.88          -1.87         -14.97         -19.31          86.12         -130.8           16.2          70.91
    0.3508              -26.57           25.5           46.4          32.88         -1.879         -14.97         -19.29          86.09         -130.6          16.27          70.91
    0.3675              -26.59          25.49          46.38          32.88         -1.889         -14.97         -19.27          86.06         -130.5          16.33          70.91
    0.3842              -26.61          25.47          46.35          32.89           -1.9         -14.96         -19.24          86.02         -130.4          16.41           70.9
    0.4009              -26.63          25.45          46.33          32.89         -1.913         -14.96         -19.21          85.98         -130.2           16.5           70.9
    0.4176              -26.65          25.43           46.3          32.89         -1.926         -14.96         -19.18          85.93         -130.0          16.59           70.9
    0.4343              -26.68          25.41          46.26          32.89         -1.942         -14.96         -19.14          85.88         -129.8           16.7          70.89
     0.451              -26.71          25.38          46.23          32.89         -1.959         -14.95          -19.1          85.82         -129.6          16.82          70.89
    0.4677              -26.74          25.35          46.18           32.9         -1.978         -14.95         -19.05          85.75         -129.3          16.95          70.88
    0.4844              -26.78          25.32          46.14           32.9         -2.001         -14.95         -18.99          85.68         -129.1          17.11          70.88
    0.5011              -26.82          25.28          46.08           32.9         -2.026         -14.94         -18.93          85.59         -128.7          17.28          70.87
    0.5178              -26.88          25.24          46.02          32.91         -2.055         -14.94         -18.86          85.49         -128.3          17.48          70.86
    0.5345              -26.93          25.19          45.95          32.91         -2.088         -14.93         -18.78          85.38         -127.9          17.71          70.86
    0.5512               -27.0          25.14          45.86          32.91         -2.127         -14.92         -18.69          85.24         -127.4          17.98          70.85
    0.5679              -27.08          25.07          45.77          32.92         -2.173         -14.92         -18.57          85.09         -126.8           18.3          70.83
    0.5846              -27.17          24.99          45.65          32.93         -2.227         -14.91         -18.44           84.9         -126.1          18.67          70.82
    0.6013              -27.29           24.9          45.51          32.93          -2.29         -14.89         -18.29          84.69         -125.3          19.11           70.8
     0.618              -27.42          24.78          45.35          32.94         -2.367         -14.88          -18.1          84.42         -124.3          19.64          70.78
    0.6347              -27.58          24.65          45.15          32.96         -2.459         -14.86         -17.87          84.11         -123.1          20.28          70.76
    0.6514              -27.78          24.48          44.91          32.97         -2.572         -14.84          -17.6          83.72         -121.6          21.06          70.73
    0.6681              -28.02          24.28          44.61          32.99         -2.712         -14.82         -17.26          83.25         -119.8          22.03          70.69
    0.6848              -28.32          24.02          44.23          33.01         -2.886         -14.79         -16.83          82.65         -117.5          23.23          70.65
    0.7015              -28.71           23.7          43.76          33.04         -3.105         -14.75          -16.3           81.9         -114.6          24.75          70.59
    0.7182              -29.19          23.29          43.16          33.07         -3.383          -14.7         -15.61          80.95         -111.0          26.68          70.52
    0.7349              -29.81          22.76          42.39          33.12          -3.74         -14.64         -14.74          79.73         -106.4          29.15          70.42
    0.7516              -30.61          22.09          41.41          33.17         -4.197         -14.56         -13.62          78.17         -100.4          32.32           70.3
    0.7683              -31.63          21.23          40.15          33.25         -4.781         -14.45          -12.2          76.17         -92.76          36.37          70.15
     0.785              -32.91          20.15          38.56          33.34         -5.516         -14.33          -10.4          73.66         -83.18          41.45          69.96
    0.8017              -34.47          18.83          36.64          33.45         -6.412         -14.17         -8.209           70.6         -71.49          47.65          69.72
    0.8184              -36.28          17.31           34.4          33.58         -7.449         -13.98         -5.672          67.06         -57.95          54.84          69.45
    0.8351              -38.24          15.65          31.98          33.72         -8.573         -13.79         -2.924          63.22         -43.28          62.63          69.15
    0.8518               -40.2           14.0          29.56          33.86         -9.697         -13.59        -0.1762          59.38         -28.62          70.41          68.86
    0.8685              -42.01          12.47          27.32          33.99         -10.73          -13.4          2.361          55.83         -15.07           77.6          68.59
    0.8852              -43.57          11.15           25.4          34.11         -11.63         -13.25          4.551          52.77          -3.39           83.8          68.35
    0.9019              -44.85          10.07          23.81           34.2         -12.36         -13.12          6.347          50.26          6.198          88.89          68.16
    0.9186              -45.87          9.214          22.55          34.27         -12.95         -13.01          7.776          48.27          13.82          92.93           68.0
    0.9353              -46.66          8.541          21.57          34.33         -13.41         -12.93          8.895           46.7          19.79           96.1          67.88
     0.952              -47.28          8.016           20.8          34.38         -13.76         -12.87          9.766          45.49          24.44          98.57          67.79
    0.9688              -47.77          7.607           20.2          34.41         -14.04         -12.82          10.45          44.53          28.08          100.5          67.72
    0.9855              -48.15          7.284          19.73          34.44         -14.26         -12.78          10.98          43.79          30.94          102.0          67.66
